<svg xmlns="http://www.w3.org/2000/svg" aria-hidden="true" viewBox="575 105 125 60"><!--Kaynak: turkey-district-maps-3 (MIT). Bkz. LICENSE-turkey-district-maps.txt--><path d="m649.3 124 .2.4 5 1.7.6.7.5 1 .2.4h.2v.3l-.5.5-.4.1-.2.3.2.2h.4l.2.4.4.4.4.9.4 1.4.2.4v4.1l.3 1.5.2 1-.6-.5-.7-.4h-.2l-.4.4-.1.2-.2.5-.1.4-.1.4-.1.9v.2l-.3.4-.3.2v.2l-.1.7-.6 1.4-.4.3-.6.4-.6.2h-1.9l-.3-.2-.3-.3-.3-.2-2.2-1.5-.7-.9-1-.9-.1-.1-3.2-1-.4-.1-.4-.3-1-1-.3-.4-.5-.5.2-.7.3-.6 1.1-1.1.4-.7.1-.7 1-1.3.7-.5.3-.4V130l.6-.6 1.9-1 1.2-1.2.5-.7.2-.4.6-.8Z" data-district="DİYADİN"/><path d="m613.3 143.8 1.8-1 1-.4 1.2-.3h2.5l.3-.2.8-1 .3-.6.2-.5.2-.4 1.3-.9h.3l.1 1 .3.6.8 1.2.4-.4 1.5-.2h.4l.5.4.3.3.6.3 2.1.7 1 .1v.2l.4.5.8.8.1.3.2.5.4.7v.7l.2.6v.9l-.2.3-.3.2-.6.5-1 .6-.3.1-.7.6-.1.2-.3.2-.9.8-.5.6-.1.1-.3.5-.3 1-.4.5-.4.9v.9l-.1.2h-.9l-.4.2-.3.2-.2.6v.7l-.1.4-.4.2-.8.2h-1.2l-.4-.1h-.4l-.4-.2h-2.5l-.8.4h-.8l.1-.3.2-.4.4-.2.2-.3-.2-.4-.6-.5-.5-.7-.3-.8v-2.5l-.1-.8v-1.3l-.2-.4-.4-.7-.5-.7-.2-.4-.2-.8-.2-.4-.2-.3-.2-.4-.3-.8-.4-.7-.2-.4Z" data-district="PATNOS"/><path d="M623.2 138.4h-.3l-1.3.9-.2.4-.2.5-.3.6-.8 1-.3.2h-2.6l-1 .3-1.1.4-1.7 1h-.1l-.1-.3-.4-.8-.4-1.6-.3-1.2v-.4l-.2-.4-.7-1.1-.6-.6-1-.8-.7-.3-1-.7-.5-.2-.3-.2-.4-.1-.8-.4-.4-.2-1.5-.6-.3-.3-.7-.2.6-.6.4-.4.8-.8.5-.6.5-.7.3-.3.3-.3 1-.8h1.2l.4-.3 1.1-.6.4-.2.3-.3.2-.4v-.4l-.2-.3-.7-.3-.9-.3H608l-.4-.2-.3-.3 1-.7 1-.3 3.7-.2 7 1 1-.1 1 .9.2.3.5.3 2.3 1.5 1 .6.2.5-.2.5-.5 1-.2.2-.2.6v.6l-.1.5v.4l-.4.6-.4.3-.7.5-.2.4.1.8v.5l.1.6v.7l-.2.6-.2.3Z" data-district="TUTAK"/><path d="M622.7 126.4h.2l1-.6.7-.1h5l.7.3h1.3l.2-.3.3.2v.5l-.1.4v.8l.4.3.3.2 1 .8.4.2.5.6.7.3v.2l-.4 1.3-.2.9.5 2.5.3 2.4v.9l-.2 1.4-.6.9-.5.4h-.2l-.6.1-.5-.3-.9-.4-.4.2-.7.8v.5l.2.6-.9-.1-2.1-.7-.6-.3-.3-.3-.5-.3h-1.9l-.4.5-.8-1.2-.3-.6-.1-1v-.6l.2-.6.1-.7-.1-.6v-.5l-.1-.8.2-.4.7-.5.4-.3.3-.6v-.4l.1-.5v-.6l.3-.6.2-.2.5-1 .2-.5-.2-.5-1-.6Z" data-district="HAMUR"/><path d="m622.7 126.4-.5-.3-.3-.3-.9-1 .1-.3.3-.4.4-.6.5-.4.2-.3v-.9l-.3-.1-.5-.2-.3-.4v-.1l.2-.3.8-.2h.7l.6-.3.2-.4v-.5l-.2-.5-.2-.5v-.4l.8-1.3.1-.7-.3-.7-.4-.6-.5-.8-.2-.7-.5-1-.2-1 1.5-1.3.4-.2h2.1l1.7.3h.5l.6-.1h1.2l.5-.2.3-.1.1-.2 1.5-1 .5-.2.4-.2h.6l.6.6.4.3.5-.2.8-.2h.3l.4.4.3.4 2 3 .2.5.5.7 1.2 1.8.1.3v.5l-.2.4-.3.7-.5.8-.2.3v.5l.2.3h.9l.5-.2-.3.4-.3.7-.1.7-.3.8-.6.9-.8.7-.6.7-.9 1.2-.6 1.1-.5 1.3-.4.7v1.3l.1.5v.4l-.1.3-.3.3-.4-.1-.5-.6v-.2l-.7-.3-.5-.6-.4-.2-1-.8-.3-.2-.3-.3-.2-.4v-.4l.2-.4v-.5l-.3-.2-.2.2-.4.2h-.9l-.8-.3-5-.1-.5.1-1.1.5Z" data-district="MERKEZ"/><path d="m622.3 111.2.2 1 .5 1 .2.7.5.8.4.6.3.7v.7l-1 1.3.1.4.2.5.1.5.1.5-.2.4-.6.2-.7.1-.8.2-.2.3v.1l.3.4.5.2.3.1v.9l-.2.3-.5.4-.4.6-.3.4-.1.4h-1l-7-.9-3.6.2-1.2.3-.9.7-.3-.3-.4-.2-.3-.2-.3-.3-.7-.6-.3-.2-.7-.5-.4-.1-.4-.2-.2-.3-.4-.1-.4-.3-.3-.3-1-.6-1.2-.6-.7-.5-.3-.2-.2-.4V118l.2-.3.7-.5h.4l1.2-.4.8-.4.3-.2.8-.4.8-.3.3-.2.7-.5.3-.3.2-.4.2-.3.4-.1.4-.3.4-.1h.8l.3.2h.4l.8-.3 1.3-.4h1.6l2.1.2h1.8l1.2-.3 1-.2.7-.2v-.1l1.7-.4.9-.1.4-.2Z" data-district="ELEŞKİRT"/><path d="m635.3 130.2.5.6h.4l.3-.2v-.3l.1-.4v-.5l-.1-.2v-1.1l.4-.7.5-1.3.6-1.1.9-1.2.6-.7.8-.7.6-.9.3-.8.1-.7.3-.7.3-.4.3-.2h.4l1.1.7h.4l.4-.1.2-.4.2-.6.3.7.7 1.2.2.3.1.5v.2l-.3.2v.3l.3.3.9.5.7.6 1.5 1-.6 1.2-.6.8-.2.4-.5.7-1.2 1.2-1.9 1-.5.6-.2.4v.5l.1.9v.4l-.3.4-.7.5-1 1.3-.1.7-.4.7-1 1.1-.4.6-.2.7-.4-.2h-.2l-.7.4-.4.3-2 .6-.6.3.2-1.4v-.9l-.3-2.4-.5-2.5.2-.9Z" data-district="TAŞLIÇAY"/><path d="m657.6 139.8-.2-1-.3-1.6v-4.1l-.2-.4-.4-1.4-.4-.9-.4-.4-.2-.3-.4-.1-.2-.2.2-.3.4-.1.5-.5v-.3h-.2l-.2-.3-.5-1.1-.6-.7-5-1.7-.2-.3-1.5-1-.7-.6-.9-.5-.3-.3v-.3l.3-.2v-.2l-.1-.5-.2-.3-.7-1.2-.3-.7v-.6l.2-.4.3-.3h.9l1 .6 2 1.7.3.1h.4l3.6.8 1.4.2.4-.1.4-.1.4-.2h.9l.4.2 1.4.8 4.3 1.7 4.3 1 4.5-.3h2.1l.4-.2 1.7-1.9.6-.6 1.5-.9.3-.2.9-.2 3-.2 2 .2.4.2.8.4-1.7 1.4-2.4 2.1-1.2 1 .3.3.3.4v1.1l.1.3-.2 1.4-.6.5-.7 1.2-.1.1h-.2l-.5.3v1.6l.2.2.2.3v.5l-.1.1.3.3-.1.2-.2.3-.6.5-.1.4-.2.2.3.2.2.1.1.7v.2l.3.2v.3l-.2.4-.2.7H677l-.7.8-.3.1v-.1l-.3.2-.3.2-.4-.2h-.1l-.2.2-.2.1v.2h-.2l-.2.3-.4-.5h-.3l-.2-.3v-.2l-.3-.2-.6.1-.1-.2-.1-.4-.3-.2v-.1h-1l-.4.2-.1.4-.6.1h-.6l-.1.1-.3.1-.1-.1-.2.2h-.2v-.2l.2-.2-.3-.1-.7.1-.1-.2h-.3l-.1-.2h-.4l-.1.2-.5-.2h-.2l-.3.3h-.2l-.1.2.3.6-.2.1h-.3l-.3.4h-.1v.3l.2.3h-.4l-.6-.2-.8-.2h-1.3l-1.2.3-1.2.5-.7.1h-.2l-.5-.2Z" data-district="DOĞUBAYAZIT"/></svg>