<svg xmlns="http://www.w3.org/2000/svg" aria-hidden="true" viewBox="260 135 130 55"><!--Kaynak: turkey-district-maps-3 (MIT). Bkz. LICENSE-turkey-district-maps.txt--><path d="m329.6 185-.3-.4-1-1-1.4-1 .2-1.6v-1l.2-1.4V177l-.3-1.2v-.8l.2-.6 1-1 .9-.6.5-1.4.5-1.6.4-.6 1-.7.6-.3.4.6.2.3.4.2 1.1.3.5.3.4.3v.3l-.2.3-.2.6-.6 1-.2.9v1.2l.3.6.3.3.4.2 1 .6.2.3.2.4-.4.4-.4 1v1l-.6.5-.4.6-.2.4-.2.5v.5l-.2.4-.4.4-.7.6-.6.4-.7.6-.8.4-.8.2Z" data-district="ÜRGÜP"/><path d="m319.4 149 2 .7 1 1 1 1.5 1.2.9 1.4.9-.2 1.4h.1v1.7l-.4.7-.3.8-1 1.2-.2 1.1-.7 1.2-.1.6-.6 1-1-.6-.7-.2h-.3l-.6.4-.8.6-.8.3h-2.2l-1.9-.3-1-.4-2-.7-.8-.5.7-2 .7-1 .6-.4.6-.3.4-.7 1.8-2 .2-.4v-.4l.2-.2h.4l.7.3.4.2 1-.2.4-.2.5-.8.2-.6-.1-.7-.2-.3h-.2l-.4.5-.1.4-.3.2h-.8l-.5-.4-.1-.8 1.2-2.5 1-.3.5-.3Z" data-district="HACIBEKTAŞ"/><path d="M327.4 177.6v1l-.3 1.5v.9l-.2 1.5 1.5 1 .9 1.1.3.4-.4.7.3.7.2.3.4.8h-1.5l-.5.1-.6.3-.7.4-.6.1h-.4l-.7-.2-.6-.2-.5-.2h-2.6l-.5.1-.6.2-.7.4-1.1.2h-.6l-.4-.1-1-.3-1-.6-.4-.4.4-1.5.3-.4.4-.7.2-.5.4-.6.6-.4 1.5-.7.8-.3 2.7-.5.7-.2 1-.5.3-.3 1-1.1.4-.7.4-.5Z" data-district="DERİNKUYU"/><path d="m318.9 182.5-.4-1.5.1-.6.3-.6.4-1.1.1-.9v-.7l-.2-.5-.5-.4-1-1-.4-.5-.8-.5-2.2-1.6-.5-.9h.7l.4-.2h3.2l1-.1.5-.2 2.2-.3.9-.1.6.1.8.2h.9l.7.6.7.4.9.9v.3l-.1 1-.2.7v.8l.4 1.2v.6l-1.2.8-.4.5-.4.7-1 1.1-.3.3-1 .5-.7.2-2.7.5Z" data-district="MERKEZ"/><path d="m333.5 152-.4.5h-1.5l-2 .1-1.4.2-1.5.7-.7.5-1.4-1-1.2-.8-1-1.5-1-1-2-.6.3-.7v-1.1l.4-1 .4-.5 1.2-.9.5-.3.1-.4-.1-.5-.7-.3h-3.1l-1-1 .4-2 1.4-1.7.8-1.7.8.8.4.4.4.2.5.4.6.3 1.3.8 1 .8.3.2.6.6.5.4.8.3.6.3h1.9l.6.5.2.8v1.1l.4-.1h.6l.2.4.4.3.2.3v.8l-.4.4-.3.6-.6.7-.1.5v.3l.3.3.7.6.1.2.9.8Z" data-district="KOZAKLI"/><path d="m310.5 162.3.9.5 1.9.7 1 .4 1.8.2 1 .1h1.3l.8-.3.8-.6.6-.3.3-.1.8.2 1 .7.3 3 .2.8.2 1.6-.1 1v.7l-.6-.1-.9.1-2.2.3-.5.2-1 .2-3.2-.1-.4.1-.7.1-2 .3h-.8l-.3.1v1.4l.3.2v2.1l-.3.4-.1.5-.8-.4-.4-.2-1.8-.9-.7-.4-.3-.3-.5-.3-.2-.3-.2-.7v-.7l.2-.7.2-1.1v-.4l.3-.9.3-.5.1-.7-.1-1-.3-.2-.6-.2-.6-.3-.7-.1-1.2-.2 1.3-1 1.4-1.4.4-1.2v-.9h.5l.2.5.4.4.9.7 1.1.4.7-.7Z" data-district="GÜLŞEHİR"/><path d="M310.6 176.7v-.5l.4-.4v-2.1l-.3-.2V172h.3l.9-.1 1.9-.3.5.9 2.2 1.6.8.5.4.6 1 .9.5.4.2.5v1.6l-.5 1.1-.3.6v.6l.3 1.5-1.5.7-.6.4-.4.6-.2.5-.4.7-.3.4-.4 1.5-.4-.4-.2-.3-.7-.6-.5-.3-.8-.2-1-.5-.5-.4-.1-.4V183l.3-.5.5-1.1.4-1 .2-.4.5-.5.4-1-.3-.5-.2-.3-.8-.4-.3-.3Z" data-district="ACIGÖL"/><path d="m334.7 169.9-.5-.3-1.1-.3-.4-.2-.2-.3-.4-.6-.6.3-1 .7-.4.6-.5 1.6-.5 1.4-.9.6-1 1 .1-1v-.4l-.9-.9-.7-.4-.7-.5-1-.1-.7-.2v-1.6l-.1-1.7-.2-.8-.4-3 .6-1 .1-.7.7-1.2.3-1.1 1-1.2.2-.8.3-.7.1-1.6v-.1l.1-1.4.7-.5 1.5-.7 1.4-.2h2l1.5-.1.4-.5.3.8.4.9.7.7.3.8v.9l.3.2.2.3-.3.7v1l-.1.4-.2.5-.4.8-.4 1-.2.6-.3.5-.3.6-.5 1-.3 1-.4 1.7 2.9 2.9Z" data-district="AVANOS"/></svg>