<svg xmlns="http://www.w3.org/2000/svg" aria-hidden="true" viewBox="120 50 100 47"><!--Kaynak: turkey-district-maps-3 (MIT). Bkz. LICENSE-turkey-district-maps.txt--><path d="M169.6 82.7h.2l.5.2h.9v.4l-.3.2v.3l-.2.3.1.2h.1v.4l.6.3v.1h.3v.2l.1.1v.9h-.6v-.1l-.2-.1h-.4v.6l.3.2h.5v.2l.2.2-.5.5v.2h-.1v.3l.1.1v.5h-.1v.3l-.1.1v.8l.1.1v.4l-.1.1-.1.2-.1.2v.1l.1.1v.3h.1v1.5l-.1.1v1l-.3.3-.2.3v.3h-.4l-.2.2-.1.1h-1.1v-.1l-.1-.1v-.6h-.7l-.2-.2v-.2h-.2v-.3h-.1v-.2h-.1v-.4h.1v-.6h-.1v-.2l.2-.3v-.3l-.1-.4-.4-.3-.1-.1h-.2V91l-.2-.2v-.1h-.3v-.1h-.2l-.2-.1h-.3l-.1.1v.1h-.3v.1l-.1.1h-.6v.1l-.2-.1v-.4l.1-.1v-.2l-.1-.1v-.4h-.2v-.5l.1-.2v-.2l.1-.2.1-.1h.2l.1-.1h.2v-.2l.1-.2h.1v-.3l-.1-.1h-.2v-.1l-.1-.1v-.1h.2v-.1h.2V87l.1-.1v-.2l.2-.1v-.4h.1V86h.6l.3-.1h.2l.2-.1h.1l.2-.2h.3l.1-.1h.7l.4-.3V85l.2-.1.2-.3h.1v-.2h.2v-.1h.1l.3-.3v-1z" data-district="TARAKLI"/><path d="m152.6 87.8-.5.2h-1.2l-.6-.4-.2-.4V87l-.2-.4-.1-.3-.2-.7v-.1l-.2-.5-.2-.2v-.1h.2v-.2h.1v-.2l-.1-.2v-.5l.3-.2h.2l.1-.2.1-.1.1-.1h.1l.1-.1.2-.2h.4v-.1h.6l.6-.5v-.2h.1l.2-.2h.5v-.1l.2-.2v-.2l.1-.2v-.1h.1l.2-.1h.3l.2-.2.1-.1v-.6l.3-.1v-.3l.1-.1v-.1l.2-.2.1-.2v-.1l.1-.2.1-.1.2.1.6.9.3.1 1.4.3.6-.2.3.7.2.2-.3.2h-.4v-.1h-.7l-.2.2v.6l.1.2.1.1.2.2.2.2v.1l.1.1v.1h.3v.1h.4v.1l.1.1v.1l.1.1h.1l.1.1.1.1.1.1.2.2.1.1.1.1.1.2.1.1v.8h-.2v.2h-.3v.1l-.2.2h-.2l-.1.1v.1h-.1l-.1.1h-.2v.3h-.1l-.1.2-.1.1-.1.1-.1.1-.2.1h-.6l-.2.1h-.4l-.2.1v.1h-.1l-.1.1v.1h-.7l-.2.1-.1.1v.2l-.1.1h-.2v-.1h-1.3v.1l-.1.1h-.1l-.2.1h-.2Z" data-district="PAMUKOVA"/><path d="m158.7 80.6-.2-.2-.3-.7-.6.2-1.4-.3-.3-.1-.6-.9-.1-.2.1-.1V78l.2-.2v-.3h.1v-.3h.1v-.6h.3v-.9l.2-.4v-.1h.4l.1.1h.1l.2.1h.1l1.6-.7.2.1.2.2.2.2h.6l.6.1.4.1.6.1v.2h.1v1h.2l.1.1h.3l.1.2v.1h.2v.3l-.1.1h.1v.1h.3v.1h-.5l-.1.2-.2.1-.1.1-.2.1-.1.2h-.2l-.2.1-.2.2-.1.1v.2l-.1.3v.2l-.1.1v.1l-.2.2-.1.3-.3.1-.2.2h-1Z" data-district="SAPANCA"/><path d="m165.2 80.8.2.1h.1v.1l-.1.1h-.6l-.2.1h-.5v.6h.1l.1.2v.4h-.6l-.1-.2h-.2l-.2-.1h-.4l-.1-.1v-.3l-.1-.2v-.2l-.2-.2h-.1l-.2-.2-.4-.1-.2-.1v-.5h-.9l-.2-.1.1-.3.1-.2v-.1h.3v-.2h-.1v-.6l.2-.1.2-.2h.2l.2-.1.1-.2h.2l.1-.2.2-.1.1-.1h.5v-.2h-.4l.1-.2V77h-.1l-.1-.1h-.2v-.1h-.4v-.1l-.1-.2v-1h.1l.2-.2v-.1h.1v-.7l.2-.1h.1v-.2l.1.1h.4l.1.2.1-.1.1-.1h.6V74h.9l.6-.2h.4l.1.2h.1v.3l-.3.2v.3h.4v.3l.2.1v.1h.1v.7h-.5v.1h-.1v.1h-.3v.2h-.2v.3l.2.4h.5v.8h-.4l-.1.2v.2l-.1.2v.4h-.2v.3h.1v.4h-.1l-.1.2v.6l.2.2Z" data-district="ARİFİYE"/><path d="M163.7 74.1v.2h-.6l-.2.2v-.2h-.5v-.1h-.1v.1h-.1v.1h-.1v.4h-.1v.4l-.1.1-.1.2h-.9l-.4-.2h-1.1l-.3-.3v-1h.3v-.4l-.2-.1v-.3h-.1V73h-.1v-.8l-.1-.2-.2-.1h-.2v-.1h-.1v-.2h-.1l-.1-.1h-.1l-.2-.2v-.4l.1-.2v-.1h.1V70l-.2-.3v-.9h.1v-.2l.2-.1h.4-.1.2l.1.1h.4v-.2h.1v-.1h.1v.3h-.1v1.5h-.1v.3h.1v.1h.5v-.1h.1v-.3h.1v.1h.2v.5h.1v-.4l.1-.1v-.1h.1l.3-.1h.4v.2h.4l.6-.4.6-.3.1.2.2.2v.2l.3.3v.2l.2.4.1.3.1.3.1.2v.1l.3.2v.1h.1v.3h-.1v.2l-.2.2v.1l-.1.1v.4l-.1.1v.4Z" data-district="SERDİVAN"/><path d="M171.9 86.3v-1h-.1V85h-.2l-.1-.1-.6-.3v-.4l-.2-.2.1-.3.1-.3.2-.1v-.1l.1-.2v-.4h-.1v-.2l-.1-.1v-.1h-.1V82l-.1-.1v-.1l.1-.1v-.5l.1-.1v-1l.1-.1v-.2h-.2v-.4l.1-.2h-.6l-.1-.2h.1v-.2h.2l.1-.1h.2v-.2h.1l.1-.2v-.1l.1-.1V78h.1v-.8l.1-.2-.2-.7h-.3l-.2.1h-.1v.3h-.1v.2h-.1v.3h-.7l-.1-.1-.1-.2.1-.1v-.4h-.1l-.2-.1-.1-.2v-.9l.2-.2v-.3l-.1-.1v-.9h.2l-.2-.5v-.4h.1v-.1l.1-.1v-.2l.1-.2.1-.1V72h.1-.1v-.1l.2-.1.3-1.2v-.4l.3-.4.4-.4.4 1.1h.1v.1l.1.1.1.1h.1v.1l.2.1.1.1v.3l-.2.1v.5l.1.2h.1l.1.1h.6v.1l.2.1h.1l.1.2h.2v.2h.1v.1h.1v.6h.1v.2h.2l.1.1v.1l.1.1v.1l.1.2v.3h.1l.1.2.1.1.2.1.6.2.4.4v.2h.9l.1.1.1.1v.3l.2.1v.1l.1.2h.2v.3l.2.2h.3l.2.1.4.1.2.2v.6l.1.1.2.1h.7l.3.1.1.2h.7l.2.1.3.1h1.4v-.1h.3v.6l-.1.3-.2.1-.2.5-.2.3-.2.3v.2l.1.2v.6h.5v.3h-.4v.7h-.1v.3h-.1v.4l.3.1.1.1v.2l-.2.1v.2l-.1.1v.1h-.1l-.1.2h-.1v.4h-.4V85h-2.1l-.2.3h-.4v.1l-.3.1h-1l-.2.1h-1.3l-.6.1h-.4l-.3-.2-.4-.1h-.2v-.1h-.6l-.3.2-.2.3v.2h-.2l-.1.1h-.2l-.1.2z" data-district="AKYAZI"/><path d="m178 63.7-.1.1v.3h-.2v.2l.1.1v.5l.1.1h.2v.1l.1.1.2.2.1.2.3.2h1.9v.1l-.1.2v.2h-.2v.8h.5l.1.1.1.2h.3l.5.1.2.2.3.1v.5l-.1.1h-.1v.1l-.1.2h-.1v.5l.2.1.5.1h.1l.3.1.1-.1.1-.1h.5v.5h-.3v.1h-.1l-.1.1h-.3v.3h-.7l-.2.1h-.3v.1h-.1l-.1.1-.2.1-.3.1-.2.2-.1.2v.6h.1l-.1.1h-.3l-.1.2v.2h-.1v.2l.1.2v.3l.1.2v.5l.2.2v.1l.1.1h.2l.3-.1v-.1h.1l.4-.1h1v.5l-.1.3.1.1h.2l.3.2h.1l.1.2.2.2h.2v.3h.6v.7l-.2.3v.5h-.2v.2h-.1v.4h-.2v.3l-.2.1h-.2l-.2.1-.1.1v.2h-.2v.3h-.3l-.1.1-.3.1h-1.4l-.2-.1h-.3l-.4-.1-.1-.2h-.7l-.3-.1-.2-.1v-.5l-.1-.2-.1-.2h-.5l-.2-.1-.3-.1-.1-.2v-.2h-.2v-.1l-.2-.1v-.2h-.1V76h-1.1v-.1l-.1-.2-.3-.4-.7-.2h-.2v-.2l-.2-.1v-.4l-.1-.2V74h-.2v-.3h-.2l-.1-.2-.1-.2V73l-.1-.2-.1-.1-.2-.1-.1-.1v-.1h-.2v-.1h-.4l-.3-.1-.2-.1v-.8h.1V71h-.1l-.2-.1-.2-.2v-.1h-.1l-.5-1.2.3-.4v-.1l.4-.5v-.1l.1-.2V68l.1-.4v-.4l.1-.2v-.3h-.2V66h-.1v-.4l.3-.2h.2V65h-.1v-.2h-.2v-.3h-.1v-.3h.2v-.1l-.2-.1h-.2v-.4h1.1l.1-.1h.3l.1-.1h.3l.1.1h.4v.1h.2l.2.1h.1l.1.1h3.3Z" data-district="HENDEK"/><path d="m169.6 82.7-.2-.1h-.2v-.1h-.4v-.1h-1l-.1-.1h-.1l-.2-.2h-.1l-.2-.2-.2-.2-.2-.1-.3-.4-.3-.3-.3-.3v-.1l.1-.2h.1l.2-.2.2-.2.3-.1v-.1h.4v-.2l.1-.2V79l.2-.3.2-.1v-.3h.3v-.1l.1-.1.2-.1v-.1l.1-.2v-.2h.1v-.3h.1l.2-.3.3-.2.1-.1v-.3h.1l.2.2h.1v.2h.1v.2h-.1v.2h.1v.1h.2l.3.1h.2v-.1h.1V77l.1-.1v-.3h.1l.3-.1h.3l.2.6v.8l-.1.1v.1h-.1v.2l-.1.1v.2h-.2v.1h-.2v.1h-.2v.2h-.2v.2h.7v.4l-.2.1v.2h.3v1.2l-.2.2v.6h-.1v.3l.1.1.1.2v.2h.1v.1l.1.1h-.9l-.5-.2z" data-district="KARAPÜRÇEK"/><path d="M178 63.7v-.1h.1v-.1h.2v-.3h-.1l-.2-.1V63l.2-.1.1-.2v-.2h.1v-.2h.1V62l-.1-.2v-.3h.1v-.1h.4v-.2h-.3v-.1h-.1v-.3h.1l.2-.2v-.5h.1l.1-.2h1.2l.1-.1.1-.1.2-.2.1-.1v-.1h.1v-.2l-.1-.2-.1-.2V58h-.1v-.4h-.1v-.4h.7l.6.1h1.5l.6.3h.6l.9-.1h.4l-.2.3v.2l.3.1h.1l.2.5.2.2.2.2.2.1.1.3v.2l-.2.2v.2l-.2.2-.3.3-.3.1-.7.3v.2l.3.3.1.2v.3l-.2.3-.3.1-.2.2-.2.4v.7l-.3.3-.3.4-.4.3-.4.2h-.3l-.5.2-1.4.2-.2.1-.2.2.3.2h-2l-.3-.2v-.2h-.1l-.2-.2V65h-.3v-.2l-.1-.2v-.5h-.1l.1-.1z" data-district="KOCAALİ"/><path d="M165.2 80.8h.2l.3-.3.1.1.3.3.3.3.3.4h.2l.2.3.2.2.3.1h.1v.1h.4l.3.1h.4l.3.1h.3l.2.2v.2h-.1v1.2l-.3.3h-.1l-.1.1v.1l-.2.1-.2.3-.1.1-.1.2-.4.3h-.9l-.2.1-.2.1-.2.2h-1.1v.1l-.1.1v.4l-.2.1v.2h-.2v.2h-.1v.1h-.2v.1h-.1v.2h.2v.1l.2.1v.3l-.1.1v.1l-.1.1h-.2l-.1.1-.2.1-.2.3v.2l-.1.2v.4l.1.1v.2l.1.2v.1l.1.2v.3h-.1v.2l.1.2-.1.1h-.3v.1h-.9l-.2-.1V91h-1l-.2.1h-.4v.1h-.2v.1h-.1v.1h-.2v.1h-.3v.2h-.1v-.1.1l-.1.1h-.9v.1h-.2l-.1.1h-.3l-.1.1v.1h-.3v.2h-.1v.4l-.1.1v.1l-.1.1-.1.1h-.4l-.1-.2h-.1l-.2-.2h-.2v-.3h-.7l-.1.1h-.1l-.1.1-.3-.2v-.2h-.1l-.1-.2h-.1v-.3h-.1l-.1-.2-.1-.2h-.1V91h-.1l-.3-.3-.1-.1-.1-.1v-.2h-.1V90h-.2v-.1h-.1v-.1h-.2l-.1-.1-.1-.2v-.3h-.1V89h-.3v-.3h-.2v-.4l-.1-.2V88l-.1-.1h.4l.2-.1.1-.2h.5l.1-.1h.8v.1h.2v-.2l.1-.1.3-.1h.2l.2-.1h.2l.2-.1h.1v-.2h.2v-.1h1.2l.2-.2.1-.1.1-.1.1-.1V86h.1v-.3h.3v-.1h.1v-.2h.1l.3-.1.1-.2.1-.1h.2l.1-.2h.2v-.9l-.1-.1-.1-.2h-.1l-.3-.3-.1-.1h-.1l-.1-.1-.1-.1v-.2h-.1l-.1-.1-.2-.1h-.2l-.1-.1h-.1l-.2-.2v-.1l-.2-.2-.2-.2v-.1l-.2-.1v-.7l.1-.1h.5l.1-.2h.1v.1h.8l.2-.1h1l.2-.3.2-.1h.3l.2.1h.6v.3l.1.2h.2l.4.2.2.1v.1l.2.2v.2l.2.2v.2l.1.2h.5l.1.1h.2l.1.1.1.2h.4v-.1h.2V82l-.2-.1v-.4l-.2-.2h.6l.2-.1.1-.2h.2l.1.1h.2l.1-.1z" data-district="GEYVE"/><path d="M178 63.7h-.6l-.3.1h-2.8l-.2-.1h-.1l-.1-.1-.2-.1h-.3l-.1-.1h-.5l-.1.1h-.5l-.1.1h-.7l.1-.1V63h-.6l-.1.1h-.1V63h-.2v-.2h.1v-.5h-.1v-.2l-.2-.1-.1-.1-.1-.1v-.1h-.1l-.1-.2.1-.2h.2v-.5h-.1v-.1h.3v.1h.3l.1-.1h.1v-.1h.1v.4l.2.1h.1l.2.2h.2l.2-.1h.2V61l.2-.2h-.1l-.1-.1-.5-.5-.2-.2-.1-.1-.1-.1-.2-.1v-.2l-.2.1h-.3l.1-.1V59h.1v-.2l-.2-.2h-.4v-.1l-.1-.2v-.1l-.1-.1-.1-.1h-.3v-.2h-.2v-.2h-.1v-.1h-.1l-.4-.2h-.9V57h-.1l-.2-.3v-.1l-.2-.2-.2-.2-.1-.2-.2-.1v-.4l.1-.2v-.2l.1-.1v-.2l.2-.2v-.8h.1l.7.1.7.2h.2l.4.1.5.1 1 .2.8.1 1.2.2h1l.2.2.3.1h.1l.1.1h.2v-.1h.1v.2l.1.1v.1h.2l.2.1.1.1h.2v.1h.2l.1.1.2.1h.1l.2.2h.2l.1.1h.1l.2.2h.1l.1.1h.1v.1l.6.1h.2l.1.1h.8l.6.2.6.1v.3h.1v.2h.1v.7h.1v.5l.2.1v.4h-.2l-.2.2v.2h-.2v.2h-.1l-.2-.1h-.9v.1h-.1v.4l-.1.2-.2.1-.1.1v.3h.3v.1h.1v.1h-.4v.3l-.1.1v.1l.1.2v.2l-.1.1v.2l-.1.1v.2h-.2v.2l.2.1v.3h-.2z" data-district="KARASU"/><path d="M171.4 63.6v.3h.1v.1h.2l.2.1v.1h-.1v.2h-.1v.5h.2v.2h.2v.2l-.2.1-.2.1-.1.1v.4l.1.1v.4h.1l.1.1-.1.1-.1.1-.1.1v.2h-.2v.1l-.1.1h-.1v.3h-.5l-.2-.1h-.1l-.1.1v.1l-.1.1-.2.1v.1l-.1.1v.1h-.3v.1l-.1.1v.1h-.2V68h-.2v.1h-.2l-.2.1v.2h-.1l-.2-.1v-.2h-.7l-.1.1-.1.1h-.1l-.2.1h-.2v.1h-.8v-.3h-.2v.1h-.3v-.5l.3-.2h.1v-.2l-.1-.1-.1-.1v-.5h.1v-.1h.1v-.4h-.6v.1h-.2v-.2h-.1l-.1-.1h-.2v-.1l-.1-.1h-.3v-.2h-.7l-.1-.1v-.2h-.2v-.5l.2-.2.2-.3h.2l.1-.2.1-.1v-.1l.1-.2v-.2l-.2-.4h.4l.2-.1.2-.2.2-.3.2-.3v-.1h.2l.1-.1h.5v.3l.1.1v.3l.1.1v.1l.1.2v.3l-.1.2.2.2h.1l.1.1h.2v.6h.2v.1l.2.2h.3v.1l.2.1v.1h.1l.1-.2.2.2.2.1v.2h.1l.2-.1.2-.2h.1V65h.3v-.1h.2l.4-.3h.9v-.2l.2-.1v-.4l.1-.1v-.1z" data-district="SÖĞÜTLÜ"/><path d="M165.4 62v-.7l.1-.1h.1V61h.2v-.8l.1-.1v-.6l.2-.1v-.1l.1-.1h.3l.1-.1h.6l.1-.1.1-.2v-.2l.2-.2v-.2l.2-.2v-.7h.9l.3.1.1.1v.1h.1l.1.2h.1l.1.1h.3v.2h.2v.4l.1.1h.4l.1.2h.2v.1h-.2v.7h-.1l.1.1h.2l.1-.1.1.2h.2v.2h.1l.1.1.2.2.5.5.2.1-.1.2-.1.2h-.8l-.1-.1-.1-.1v-.4h-.2l-.2.2h-.3v-.1h-.3v.2l.1.2v.1l-.2.1-.1.1v.2h.1l.1.2.1.1h.1l.1.1v.2h.1l.1.1v.7l.2.1h.7v.3l-.2.1-.1.2v.3l-.1.2-.1.1v.1l-.1.1h-.9l-.4.2h-.1v.1h-.2l-.1.1-.2.1-.1.1-.2.2h-.1l-.1-.2h-.1V65h-.1l-.1-.2-.1.1-.1.2h-.1V65l-.2-.1v-.1h-.1v-.1h-.2l-.1-.2h-.2l-.1-.1V64l-.1-.1h-.2l-.2-.2-.1-.1.1-.1v-.6l-.2-.2V62h-.7Z" data-district="FERİZLİ"/><path d="m165.7 80.5-.3.3h-.2v-.1l-.2-.2-.1-.3v-.4l.2-.1v-1l.1-.3v-.2l.2-.2h.4v-.8h-.5l-.1-.4v-.2h-.1v-.1h.2v-.1h.2v-.1h.2V76h.4l.1-.1v-.5h-.1v-.1l-.2-.2V75h-.4v-.4l.2-.2.1-.1V74l-.2-.1v-.1h-.4l-.6.1h-.3v-.4h.1l.1-.1v-.2l.1-.2v-.4l.1-.2v.1h.5v.1h.5v.2l.2.2v.4h.7v-.1h.2v-.2h.1V73l.3-.2v-.1l.1-.1h.3l.2-.1v-.2h.3v-.1h.4v-.1h.1l.3-.2h.2l.2-.1h.1v.1h.4v.2l-.2.1v.1l-.1.1v.2l-.1.2v1.3l-.1.1v.8l-.1.2v1l-.2.1.1.1-.1.2-.3.2-.2.2v.3l-.2.1v.4h-.1l-.1.2h-.2v.2h-.2v.2h-.1l-.2.2-.2.2v.8h-.4l-.1.1h-.2l-.1.1-.2.1v.1l-.2.1v.1l-.2.1Z" data-district="ERENLER"/><path d="M167.3 53.8v.4l-.1.3v.2l-.1.2v.2h-.1l-.1.3v.1h-.1v.4l.2.2v.1l.1.1.2.2.2.2.2.3.1.2v.7l-.2.3v.2l-.1.2v.2l-.2.2h-.7v.1h-.3l-.1.1v.1l-.1.1h-.2v1.1h-.1v.4l-.1.1v.1l-.2.1v.3l-.1.2v.5l-.2.2-.1.3-.1.1-.1.1h-.1l-.2.1h-.3l-.1.1h-.9l-.1.1h-.3l-.2.1h-.5l-.1.1h-.6l-.2.2h-.6v-.4l-.1-.1h-.1v-.2l-.2-.2-.2-.1v-.4h-.2V62l-.2-.2h-.1l-.3.1-.2.3V62l-.1-.1v-.1l-.1-.1V61l-.1-.1v-.1l-.1-.1v-.1l-.1-.1-.1-.2h-.2v-.1l.2-.2h.4l.1-.2h.1l.2-.1v-.3l.1-.1.1-.1h.2v-.1l.1-.1v-.4l-.2-.2v-.3l-.1-.1v-.2l-.2-.2v-.2l.1-.4.1-.2.2-.1.3-.2v-.1l.2-.1h.1l.3.2h.3v-.2l.2-.1V56l.2-.1.1-.1v-.1h.2v-.1l.1-.1v-.1l.2-.1h.1l.1-.1V55l.1-.2v-.7h.1v-.4h.1v-.3h.1l.1-.1h.1l.2-.1.2-.1h.4l.2-.1v-.3h-.1v-.1l.1-.1.2-.3 1.4.6-.2.2h.4l.4.3.8.3Z" data-district="KAYNARCA"/><path d="M159.4 68.4V68h.1l.1-.2h-.2l-.2-.2h-.4l-.1-.1-.2-.1-.2-.1V67l-.1-.1-.1-.1h-.1v.1l-.2-.1v-.1h.2v-.6l.1-.1h.4l.2-.1h.3l.3-.2h.3l.1-.1.2-.3h.2V65l.2-.2.3-.3h.2l-.1-.1-.1-.1h-.1l-.2-.2V64l.1-.2.1-.1h.2v-.1h.5l.3-.2h1.1v-.1h.2l.1-.1h.6l.2-.1h.5l.2.4v.4l-.2.2-.1.1-.2.1-.2.3-.2.2v.4l.1.1v.2h.1v.1h.7v.1h.1v.1h.3v.2h.3v.1l.1.1v.1h.2v.1h.1l.2-.1h.4v.4h-.2v.6l.1.2.1.2-.3.2h-.1v.5h.3v-.1h.2v.3h.8l.2-.1h.2l.2-.2h.4v-.1h.4v.2h.3l.2-.1h.2V68h.2v.4h.1l.1-.2h.3v-.1h.1V68h.1l.2-.1v-.2l.2-.2h.1l.2.1h.5v-.2l.1-.2.1-.1h.2v-.3h.1l.2-.1v.8l-.2.4v.4l-.1.1-.4.5-.3.5-.4.4-.2.4-.1.4-.3 1.2h-.1v.1h-.2v.1h-.2v-.1h-.2v.1h-.3l-.3.1v.1h-.4v.2h-.4v.2h-.5v.3l-.3.1-.1.1v.1l-.1.1h-.1v.1h-.4l-.1.1h-.3V73l-.2-.2v-.2h-.4v-.1h-.7v.9h-.3v.5h-.1l-.4.1v-.5l.1-.1V73h.1l.1-.3v-.1h.2V72h-.1l-.2-.2-.2-.3v-.3l-.2-.3-.1-.4-.1-.2-.2-.3-.1-.1-.2-.2-.1-.2-.6.3-.6.4h-.3v-.3h-.1v.2h-.7v.1l-.1.2v.3h-.1v.1h-.1v-.4h-.1v-.2h-.2v.2l-.1.1h-.2l-.2.1h-.1l-.1-.1v-.3l.1-.2v-1.3h.1z" data-district="ADAPAZARI"/></svg>