<svg xmlns="http://www.w3.org/2000/svg" aria-hidden="true" viewBox="270 93 140 70"><!--Kaynak: turkey-district-maps-3 (MIT). Bkz. LICENSE-turkey-district-maps.txt--><path d="m322 128 .1-.1.5-.3.5-.4.6-.7.4-.4.4-.5 1-.5.6.2.4.4.3.6 2.2 3 1.4 2 .4.5.4.7.6.6.7.6 1 .5.9.2.3.2.1.3v.4l-.2.3-.6.4-.2.3-1 .6-.5.4-1.7.9-.2.3-.3.6-.5.6-.2.4-1.7 1.2-1 .7h-.3l-.3-.3-.2-.2-.3-.4-.3-.2-.3-.2-.4-.3-.6-.5-.4-.3h-.1l-.8-.5h-.2l-.4-.3-.5-.4-.4-.2-.3-.3-.1-.1-.3-.3-.3-.3-.3-.3-.6-.6h-.1l-.8-.8-.6-.4-.3-.2.4-2 .5-.9.6-.7.5-.3.3-.4.2-.4.2-.3v-.8l.6-.3h.2l.3-.3.2-.1Z" data-district="ŞEFAATLİ"/><path d="M339 132.1v-.4l-.6-.7-.3-.2-.5-.6-.8-1-1-.8-.8-1.3-.6-1.3-.3-2-.3-2-.5-2.7.2-.6.5-.7.3-.8v-1.1l-.7-3.1.4-1 1.7-1.1.7-.7.3-1.4h.2l.6-.3.4-.4.1-.1.1-.4v-.2h1.2l.6-.3 1.6-.8 1-.1h1l.6.4.2 1 .5.9v1.4l.4 1.6.8 1 .7.5h1.7l.4.6.2.6.2.7 1 .7 1 .2 1.2-.2 1-.6.7-.4 1-.3 1-.3v2.5h-.2l-.3.2-.6-.1-.5.2-.2.4-.2.5-.2.5-.7.6-.4.3-.5.3-.6.5-1.1.5-1 2.2-.6 1.2-.2.9-.2.6-.2.3-.8.2-.4.2-.8.9-.9.8-.7 1.2-.1.4-.3.5-.5.2-1.2.2-.6.2h-1l-.5.2-.6 1.2Z" data-district="SORGUN"/><path d="m348.4 125.4.7.3.4.5.4.5 1.5.4h.4v.1l.6.5.6.3h.5l1.4-.9.6.2.4.7v.3l.1.3h.8l.8.1.5.3.3.4v.5l-.3.5-.3.2-.6.5-.3.8.2.3.2.2.4.3v.6l-.6.3-1 .2-2.5.5-1 .6-.6.5-.3 1.8v1.2l-.2.8v.8l-1.1.6h-1.2l-1.6-.4-1.8.2h-.8l-.7-.3-1.5-.5h-.4l-1.2.2-.9-.3-.6-.5-.2-.2-1-1.3.3-1 .5-1 .1-.1.1-.7-.1-.7-.3-.6v-1.3l.9-.5.6-1.2.5-.1h1l.6-.3 1.2-.2.5-.2.3-.5v-.4l.8-1.2.9-.8.8-.9.4-.2Z" data-district="SARIKAYA"/><path d="m357.5 148-.7.1h-1.9l-.6-.1-.7-.1h-.2l-.1.1-1.9-1.1-1.6-3.8v-2.3l.1-.2h.5l1-.6.1-.8.2-.8v-.6l1.3 1.1.6 1 .3 2.4.4.8 1 1.4 1.4 1.4.5.9Z" data-district="ÇANDIR"/><path d="m309.8 110.4.3-.2.1-.1.6-.2.3-.1h.4l.3-.2h1.3l.9.1.5.2.7.2.6.4.6.2.3.2.6.4.3.2h.3l.6-.1.8-.3.7-.4h.1l.6-.3.6-.3.3-.1.6-.1h.4l1-.2h1.2l1-.1h1l.6-.1h2.4l.2.2.3.2h.2l.3-.1.3-.4h1.2l.4.2.5.1h.9l.5-.1.3-.2.7-.5h.3l.6-.3h.2l-.3 1.4-.7.7-1.7 1-.4 1 .7 3.2v1l-.3.9-.5.7-.2.6.5 2.6.3 2 .3 2.1.6 1.3.8 1.3 1 .8.8 1 .5.6.3.2.6.7v.4l.1.8v.5l-.4.4-.7.5-.6.1h-.6l-1.2.1-.8.4v-.3l-.4-.2-1-.2-1-.5-.6-.6-.6-.6-.4-.7-.4-.5-1.4-2-2.2-3-.3-.6-.4-.4-.5-.2-1 .5-.5.5-.4.4-.6.7-.5.4-.5.3-.1.1-.2-.3-.2-1v-.8l.8-1.1.2-1-.3-.7-.3-.5-.8-.8-.5-.4-.9-.3-.5-.1-1.7-.8-1.4-.8-.4-.3-.5-.5-1-1-.6-.6-1.6-1.5-1-1.9-.6-1.6-.4-.9Z" data-district="MERKEZ"/><path d="m344 106.4-.5-.3-1-.1-1 .1-1.6.8-.6.3H338v-.4l-.4-.5v-2.2l.2-.3v-.1l.5-.4.2-.1.4-.4.2-.3.2-.1.9-.5v-.3l-.2-.2-.7.2h-.5l-.2-.3v-.4l.2-.3.4-.4v-.2l.1-.4v-.5l.1-.2.4-.1.7-.2h.4l1-.2 1.7-.3.6-.1 1.5-.3h.3l.2-.2v.1h1.7l.6.1.2.1.3.2.7.2h.1l.2.3.2.2.1.4.2.5.2.3-1.4.7-.9.3-.8.5-.4.4-.5 1.1-.2.5-1.4 1.6-.2.4-.5.7Z" data-district="AYDINCIK"/><path d="M358.1 113.5h.1l1.8-.3 1 .1 1.4.2h1.5l.4-.1.5-.2.7-.6 1.6-.6 2-.2.7-.3v.1l.3.5h.2v.3l.2.3v1.3l.1.4.1.5.4.7.4.4 1.1.5.3.3.2.1v.5l-.4.5-.1.4-.3.4-.1.1v.2l-.2.5v.6l.2.3.8.5.3.2.3.1.3.2h.1l1 .6.6.6v1.2l.1.7.1.4.1.7v1.6l-.2.5v.2l-.1.6-.3.7-.2.2-.7 1.4-.4.7-.3.6-.2.6-.1.2-.2.2-.4.5-1.2-.3-.8-.3-1-.6-2-.5-5-.2-1-.1-2.2.3-1.4.2-1 .3v-.2l-.3-.3.3-.8.6-.5.3-.2.3-.5v-.5l-.3-.4-.5-.3-.8-.1h-.8l-.1-.3v-.3l-.4-.7-.6-.2-1.4.9h-.5l-.6-.3-.6-.5.2-.9v-.7l-.3-.8v-.3l-.4-.6-.2-.8.3-.7.4-.8.6-.5.9-.6.8-1v-.2h.2l.2-.3v-.6l.2-.2.9-.6.3-.1h1.7l.1-.1.5-.6.4-1.5v-.8l-.4-.9Z" data-district="AKDAĞMADENİ"/><path d="m357.5 148-.3-1.2-.5-.9-1.5-1.4-.9-1.4-.4-.8-.3-2.3-.6-1-1.3-1.2v-.6l.3-1.8.5-.5 1-.6 2.5-.5 1.1-.2.5-.3.1-.3v-.3l-.4-.3.9-.3 1.4-.2 2.2-.3 1 .1 5 .2 2 .5 1 .6.8.3 1.2.3-.1.2-.5.7-.1.3-.1.5-.4.7-.2.3h-.5l-.2-.2-.3-.2h-.7l-.3-.2-.4-.3-.3-.1-.8-.3h-.8l-.3.2-.3.2-.1.5v2.1l.2.7v.8l.1.5v.3l-.3.3-.5.4-.2.3-.5.5-.1.1-.4.5-.3.3-.2.2-.3.5-.4 1-.3.4-.4.5-.2.2-.5.5-.6.4-.3.2-.2.1-.6.3-1.7.7h-.4Z" data-district="ÇAYIRALAN"/><path d="m330.4 138.5.2-.3 1.7-1 .5-.3 1-.6.2-.3.6-.4.2-.3v-.4l.8-.4h1.8l.6-.2.7-.5.4-.4.3.6.1.7v.7l-.2.2-.5 1-.3 1 1 1.2.2.2.6.5.9.3 1.2-.1.4-.1 1.5.5.7.3h.8l1.8-.2 1.6.4h.7l-.1.2v2.3l1.6 3.8 1.9 1.1-.2.3-.2.3v.3l-.1.5-.3.6v.5l-.3.3v1.4l-.1.3-.4.5-.3.1-.8.5-.8.4-.5.3-.4.4-1 1-.2.3-.6.7-.2.3v.2l-.1.4-.1.2-.3.5v.4h-.2v-.2h-.1l-.2-.3h-.1l-.2-.1v.1l-.3.1v-.1h-.2v.3h-.1l-.3-.3-.3-.1-2.6-1-4.3-1.4h-.4l-.2.1-.4.2-.7.6-.1.3h-.2l.2-.3-.2-.3-.3-.2v-.9l-.2-.6v-.2l-.3-.3-.5-.4v-.2l1.1-1 2.8-3 .7-.3.5-1v-.8l-1-1-.5-.4-.8-1-.8-1-.4-.9-.6-2-1.6-1.8-2-.6Z" data-district="BOĞAZLIYAN"/><path d="m334.1 153.5-.3-.7-.2-.4v-.2l-.1-.2-.4-.5v-.2l-.2-.3-.9-.8-.1-.2-.7-.6-.2-.3-.1-.3v-.5l.2-.1.2-.3.3-.3.1-.4.2-.2.3-.4.1-.4v-.4l-.2-.3-.1-.1-.3-.2-.1-.4h-.7l-.3.1h-.1v-1.1l-.2-.8-.5-.3v-.1l-.4-.1h-1.6l-.4-.2-.2-.1-.5-.2 1-.7 1.7-1.2.2-.4.5-.6.3-.6 1.3.2 1.9.6 1.6 1.7.6 2.1.4 1 .8 1 .8 1 .6.3 1 1v.8l-.6 1-.7.3-2.8 3Z" data-district="YENİFAKILI"/><path d="m358.6 104.9 1.2.1h1.9l.7-.3.4-.2h.7l.4-.1 1-.3h1l.4.1.4.3 1 .8.2.3.4.5v.2l.1.6v.2l-.3.5v.9l.2.4v.3l.2.2.3.3.1.2.3.3.4.5.2.4v.4l-.7.3-2 .2-1.6.6-.7.6-.5.2-.4.2h-1.5l-1.3-.3H360l-1.8.2-.4-.2h-1l-.4.1-.2.1-.2.3-.2-.4v-.4l.2-.9.1-.5.5-.9.3-1 .3-.5v-.3l.4-.8.7-1.5.1-.7Z" data-district="KADIŞEHRİ"/><path d="m309.8 110.4.3.7.4 1 .5 1.5 1.1 1.9 1.6 1.5.6.7 1 .9.5.5.4.3 1.4.8 1.7.8.5.1.9.3.5.4.8.8.3.5.3.7-.2 1-.8 1.1v.7l.2 1 .2.4-.5.4h-.2l-.3.3h-.2l-.6.4v.8l-.2.3-.2.4-.3.4-.5.3-.6.7-.5 1-.4 1.9-.6-.4-.3-.1-.3-.2-.3-.2-.3-.9v-1.6l.4-.7.2-.2.1-.3.2-.3v-.2l-.2-.3-.6-.4-1.2-.3-.3-.2h-.2l-.2-.4-.1-.2-.1-.5v-.2l-.1-.6-.1-.4-.2-.8-.2-.3v-.2h-.2l-.4-.2-.2-.1-.1-.3h-.7l-.4-.1-.1-.2-.2-.3-.1-.1h-.2l-.4-.2-.5-.1-.7-.1h-.5l-.5-.2h-.2l-.2-.1-.4-.4-.4-.3-.5-.4-.4-.2-.4-.2-.1-.1-.4-.7-.4-.6-.7-.6-.3-.3-.2-.1h-.3l-.3-.1h-.6l-.5-.2h-1l-.2-.2-.2-.2-.4-.5-.4-.9v-1.3l-.3-.3-.1-.1v-.5l-.2-.3-.1-.1-.4-.2v-.1l-.1-.3v-.1l1-.1h.4l1.7-.4.4-.1 1.2-.1h1.6l.5-.1.3-.1.4-.2h1.7l.5-.1.3-.1.2-.2.3-.4.5-.8.3-.3Z" data-district="YERKÖY"/><path d="m344 106.4.5-.3.5-.7.2-.4 1.4-1.6.2-.5.5-1.1.4-.4.8-.5.9-.3 1.4-.7.2.3.4.2.2.2.2.4v1.2l.1.5.2.4.3.1.4.2h1.3l.4.2.2.1h.5l.6.3h.2l.3.3.2.1 1.2.3 1 .2-.3 1v.7l-.8 1.5-.3.8v.3l-.4.5-.3 1-.5.9-.1.5-.2.9v.4l.2.4-.9.3-1 .3-.8.4-1 .6-1 .2-1-.2-1.1-.7-.2-.7-.2-.6-.4-.5-1.7-.1-.7-.5-.8-1-.3-1.6v-1.4l-.6-1Z" data-district="ÇEKEREK"/><path d="m351.8 127.2-.4-.1-1.5-.4-.4-.5-.4-.5-.7-.3.2-.3.2-.6.2-1 .6-1.1 1-2.2 1-.5.7-.5.5-.3.4-.3.7-.6.2-.5.2-.5.2-.4.5-.2h.9l.2-.1v-2.8h.3l.4-.2h1l.3.2.1.1.4.9v.8l-.4 1.5-.5.6-1.8.1-.3.1-1 .6v.2l-.1.6-.2.2-.1.1-.1.2-.8 1-.9.6-.6.5-.4.8-.3.7.2.8.3.6.1.3.2.8v.7Z" data-district="SARAYKENT"/></svg>