<svg xmlns="http://www.w3.org/2000/svg" aria-hidden="true" viewBox="200 220 150 60"><!--Kaynak: turkey-district-maps-3 (MIT). Bkz. LICENSE-turkey-district-maps.txt--><path d="M255 249.1v-.3l-.2-.3-.2-.3-1-.6-.4-.2-.9-.2-.7-.5-.3-.2h-.7l-.7-.1h-.3l-.3-.2-.3-.5-.1-.7.1-.7.7-1.7v-.8l.1-.6.3-.5.1-.2.4-.7v-.6l.5-.4.4-.8v-.2l.2-.5.2-1v-.7l.2-.7.5-.4h1.4l.5.4.4.2.1.2.2.3.4.5.2.4.3.1.3.4h.4l.6.1.3-.1.2-.4.2-.2v-1.1l-.2-.3-.5-.3h-.3l-.8-.3h-.2l-.2-.8v-1.3l.7-.7.3-.5 1.2-.3.2 1.1.2.7 2 2.1 1.4.6.5.4.6.2-.2.9-.8 1v.6l.1 1 .2.6h-1.7l-.5.6.2.9.5 1.2h.1l.8.8-.8.7v2.7h-.7v-.1l-.2.3v.2h-.2l-2 .3-.8.6-1.2.7Z" data-district="KAZIMKARABEKİR"/><path d="m242 272.2.2-.4h2l.6-.2h1.1l.7-.2 1.5-1h.8l.3-.4v-.5l.2-.1.4-.2.5-.1h.4l.4-.4v-.3l.4.2.8.1.2-.2h.1v-1.2l-.5-1.4-.2-.7.1-1 .1-1.4v-.1l-.6-1.4-1-1.7-.5-1.3v-.1l1.8-1.5.9-1.2h.1l3.3 1.4 2.1.6-.1.4v.9l.1.5.4 1 .1.2.4 1 .1.4.1.7v1.4h.4l.3.1h.5l.6-.3.5-.1h.4l.2.1v.2l.1.2.1.4v.7l.1.3.1.4.1.3.1.3.2.2.3.3.3.1.5.2h.4l.5.2.7.3.3.1.2.2.2.1.4.4.4.6.4.4.3.6.1.1.1.4v.6h-.2l-.6-.2h-.1l-.3-.3-.2-.2-.5-.6-.5-.4-.8-.5h-.1l-.5-.2h-.3l-.1.1-.5.4-.4.3-.3.2h-.3l-.3.1-.3.2-.2.2-.2.5v.3l-.1.2v.5l-.1.4-.2.3-.6.7-.2.1h-.1l-.2.2-.7.3-.7.2-.4.1-1.6.3h-.2l-1.7-.2h-.4l-.4-.1-.2-.1-.4-.1h-1.8l-.5.2-.7.1-.6.3-.6.4-.6.5v.1l-.4.3-.4.2-.4.2h-.2l-.9.2-.3.1-.3.2h-.1l-.2.3-.3.5-.3.7v-.2l-.6-2.1v-2.7l-1.3-.8Z" data-district="ERMENEK"/><path d="m284 248.1.2-1-.1-.7v-1.2l-.3-1-.1-1 .1-2-.3-.7-1.5-1.5-.4-.5-.9-2.5-.6-3-.4-4.7.3-4.9-.1-.7-.2-1 1-.1 2.8-.1 1 .7 1 .4 1.2.8.8.7.7 1 1 .8 1.4 1 1.2 1.1.7 1.2.5.7.8 1.3.7 1 1.2 1 1.4.6 3 1 1 .1.7.3.9.8.7.8 2.5 3.4.1.2-.3.2-.3.2v.1l-.4.1h-.5l-1.5.3h-2l-1 .1-.5.1h-.3l-.4.3-.4.2-.2.2-.2.2-1.1 1-.2.3-.2.3-.4.5-.2.2-.7.6-.2.3-.3.3-.7.4-.6.2-.9.6-.2.2-.3.4-.5.4-.5.4-.2.2h-2l-.5-.1H287l-.4.1h-.8l-.6-.3-.6-.1Z" data-district="AYRANCI"/><path d="m242 272.2-1.8-1.4-1.7-1-.5-1.9.7-2.6.4-2V261l.6-.2 1.5-1 .8-.5 1.1.3.8.9.5 1.1.6 1.4.3.8.1.4.7.5.6.6.5.6 1 .7 1.3 1 1 .4.6.2v.5l-.4.4h-.9l-.4.3-.1.1-.1.5-.3.4h-.8l-1.5 1-.7.3h-1.7l-1.1.1h-.9Z" data-district="SARIVELİLER"/><path d="M251 268.4v-.2l-.4-.2-1.1-.3-1.4-1.1-1-.7-.4-.6-.6-.6-.7-.5-.1-.4-.3-.8-.6-1.4-.5-1.1h2.3l1.4-.4 1.2-.9 1.1-1 .7 1.4.9 1.7.6 1.4v1.6l-.2.9.2.7.4 1.4v.7l.1.4-.3.3h-.8Z" data-district="BAŞYAYLA"/><path d="m258 230.8.4-.4.7-1.5.2-.4v-.3l.4-.4.4-.6 1.1-.1.5.3.2.1.7.3h.9l.5.1h.4l.5-.4.4-.5.5-1.3.2-.4.2-.5.3-.5v-.1l.4-.1h.5l.3.1.4.4 1.3 1.3.5.6.2.2.1.1.4.3h.2v.2l.2.2v.6l2-.1.3.3 1.5.2h.8l.3-.2.9-.7.1-.6.2-.5.1-.3.1-.6.3-1v-.6l.2-.5v-.4l.3-.4.4-.5.5-.3.7-.1.2 1v.6l-.2 4.9.4 4.7.6 3 .9 2.5.4.5 1.5 1.5.3.7-.1 2v1l.4 1v2.9h-.4l-.3.1-.6.5-.2.3-.3.3-.5.8-.2.3-.2.2-.7.3-.5.2-.9.2h-4.1l-1.2-.1h-1.5l-.3.2-.2.4-.8.7-.6.7-.3.2h-.6l-.3-.1-.4-.3-.2-.1h-.3l-.2.1-.2.3-.3.5-.2.6-.7 1.2-.4.6-.4.6-.3.3-.2.3-.3.1h-.1l-.4.1h-.2l-.1-.2-.3-.7-.2-.4-.3-.3-.2-.2h-.8l-.9.4-.8.2-1.4.2h-.4l-.4.2-.2.2-.2.2-.2.3-2-.6-3.4-1.3h-.1l.1-.2.1-1V253l.6-1.5 1-.6.2-.3.3-.5v-1l.8-.2 1.2-.7.7-.6 2-.2.2-.1.1-.2.2-.3v.1h.8l-.1-.6v-2.1l.8-.7-.8-.8h-.1l-.5-1.2-.2-.9.5-.6h1.7l-.2-.5-.1-1.1v-.7l.8-.9.2-.9-.6-.2-.5-.4-1.3-.6-2.1-2.1-.2-.7Z" data-district="MERKEZ"/></svg>